<?xml version="1.0" encoding="utf-8"?>
<!-- Generator: Adobe Illustrator 17.0.0, SVG Export Plug-In . SVG Version: 6.00 Build 0)  -->
<!DOCTYPE svg PUBLIC "-//W3C//DTD SVG 1.1//EN" "http://www.w3.org/Graphics/SVG/1.1/DTD/svg11.dtd">
<svg version="1.1" id="Layer_1" xmlns="http://www.w3.org/2000/svg" xmlns:xlink="http://www.w3.org/1999/xlink" x="0px" y="0px"
	 width="612px" height="792px" viewBox="0 0 612 792" enable-background="new 0 0 612 792" xml:space="preserve">
<g>
	<path d="M178.018,403.595h-48.204v-65.246h16.068v51.223h32.136V403.595z"/>
	<path d="M235.184,403.595l-4.577-11.88h-27.461l-4.577,11.88h-17.236l27.267-65.246h16.457l27.267,65.246H235.184z
		 M216.876,356.462l-8.277,21.424h16.652L216.876,356.462z"/>
	<path d="M298.778,403.595l-21.327-24.54h-3.408v24.54h-16.068v-65.246h16.068v25.903h2.337l22.203-25.903h19.281l-27.753,32.72
		l29.702,32.525H298.778z"/>
	<path d="M373.375,403.595l-4.576-11.88h-27.462l-4.577,11.88h-17.236l27.267-65.246h16.458l27.267,65.246H373.375z
		 M355.067,356.462l-8.277,21.424h16.652L355.067,356.462z"/>
	<path d="M436.579,403.595l-19.671-22.398h-4.675v22.398h-16.067v-65.246h33.012c14.121,0,23.47,8.569,23.47,21.327
		c0,10.712-6.622,18.405-17.14,20.742l20.45,23.177H436.579z M427.425,367.758c5.746,0,9.446-3.116,9.446-7.888
		c0-4.674-3.7-7.791-9.446-7.791h-15.191v15.678H427.425z"/>
	<path d="M462.292,403.595v-65.246h16.067v65.246H462.292z"/>
</g>
<g>
	<path d="M213.069,334.273l7.144-13.958h9.831h-0.054l-7.331,13.958H213.069z"/>
</g>
<g>
	<path d="M144.523,440.542v-11.641h-17.436v11.641h-1.8v-23.916h1.8v10.652h17.436v-10.652h1.8v23.916H144.523z"/>
	<path d="M170.483,437.508c-2.271,2.188-5.371,3.281-9.301,3.281c-3.953,0-7.053-1.082-9.3-3.246
		c-2.248-2.163-3.371-5.149-3.371-8.959c0-3.763,1.129-6.679,3.388-8.748c2.259-2.069,5.353-3.104,9.283-3.104
		s7.03,1.035,9.301,3.104c2.271,2.069,3.406,4.985,3.406,8.748S172.754,435.321,170.483,437.508z M169.213,421.053
		c-1.918-1.775-4.595-2.663-8.03-2.663c-3.412,0-6.077,0.888-7.994,2.663c-1.918,1.775-2.877,4.286-2.877,7.531
		s0.965,5.814,2.895,7.707c1.929,1.894,4.588,2.84,7.977,2.84c3.436,0,6.112-0.935,8.03-2.805c1.917-1.869,2.876-4.45,2.876-7.742
		C172.089,425.339,171.13,422.828,169.213,421.053z"/>
	<path d="M200.114,440.542v-20.53l-10.413,20.53h-1.447l-10.447-20.53v20.53h-1.8v-23.916h2.047l10.906,21.481l10.942-21.481h2.012
		v23.916H200.114z"/>
	<path d="M204.914,440.542v-23.916h18.213v1.658h-16.448v8.994h14.578v1.623h-14.578v9.982h16.625v1.658H204.914z"/>
	<path d="M257.434,438.566c-2.165,1.481-4.765,2.223-7.8,2.223c-4,0-7.165-1.035-9.495-3.104c-2.424-2.14-3.636-5.15-3.636-9.03
		c0-3.786,1.159-6.778,3.477-8.978c2.317-2.198,5.453-3.298,9.406-3.298c2.941,0,5.388,0.588,7.341,1.764
		c2.212,1.341,3.647,3.563,4.306,6.667h-1.835c-1.036-4.516-4.294-6.772-9.777-6.772c-3.436,0-6.147,0.94-8.136,2.821
		c-1.989,1.882-2.982,4.469-2.982,7.761c0,3.363,1.006,5.956,3.018,7.778c2.012,1.822,4.782,2.733,8.312,2.733
		c2.706,0,5-0.693,6.883-2.081c2.023-1.481,3.035-3.445,3.035-5.891v-0.636H249.28v-1.657h12c0.071,0.775,0.106,1.399,0.106,1.869
		C261.387,434.146,260.069,436.756,257.434,438.566z"/>
	<path d="M285.264,437.508c-2.271,2.188-5.371,3.281-9.301,3.281c-3.953,0-7.053-1.082-9.3-3.246
		c-2.248-2.163-3.371-5.149-3.371-8.959c0-3.763,1.129-6.679,3.388-8.748c2.259-2.069,5.353-3.104,9.283-3.104
		s7.03,1.035,9.301,3.104c2.271,2.069,3.406,4.985,3.406,8.748S287.535,435.321,285.264,437.508z M283.994,421.053
		c-1.918-1.775-4.595-2.663-8.03-2.663c-3.412,0-6.077,0.888-7.994,2.663c-1.918,1.775-2.877,4.286-2.877,7.531
		s0.965,5.814,2.895,7.707c1.929,1.894,4.588,2.84,7.977,2.84c3.436,0,6.112-0.935,8.03-2.805c1.917-1.869,2.876-4.45,2.876-7.742
		C286.87,425.339,285.911,422.828,283.994,421.053z"/>
	<path d="M311.982,437.508c-2.271,2.188-5.371,3.281-9.3,3.281c-3.953,0-7.053-1.082-9.3-3.246
		c-2.248-2.163-3.371-5.149-3.371-8.959c0-3.763,1.129-6.679,3.388-8.748c2.259-2.069,5.353-3.104,9.283-3.104
		s7.029,1.035,9.3,3.104s3.406,4.985,3.406,8.748S314.254,435.321,311.982,437.508z M310.713,421.053
		c-1.918-1.775-4.595-2.663-8.031-2.663c-3.412,0-6.077,0.888-7.994,2.663c-1.918,1.775-2.877,4.286-2.877,7.531
		s0.965,5.814,2.895,7.707c1.929,1.894,4.588,2.84,7.977,2.84c3.436,0,6.113-0.935,8.031-2.805c1.916-1.869,2.875-4.45,2.875-7.742
		C313.588,425.339,312.629,422.828,310.713,421.053z"/>
	<path d="M325.802,440.542h-8.295v-23.916h9.636c3.93,0,6.918,1.07,8.965,3.21c1.953,2.069,2.93,4.997,2.93,8.783
		c0,3.903-1.247,6.902-3.741,8.995C332.967,439.566,329.802,440.542,325.802,440.542z M334.802,421.035
		c-1.718-1.834-4.283-2.751-7.694-2.751h-7.801v20.6h6.601c3.576,0,6.358-0.87,8.348-2.61c1.988-1.74,2.982-4.291,2.982-7.654
		C337.237,425.28,336.426,422.752,334.802,421.035z"/>
	<path d="M351.673,440.789c-3.083,0-5.554-0.553-7.412-1.658c-2.329-1.341-3.494-3.444-3.494-6.314v-0.847h1.8v0.706
		c0,4.304,3.047,6.455,9.142,6.455c2.095,0,3.848-0.317,5.26-0.952c1.812-0.823,2.718-2.093,2.718-3.81
		c0-1.199-0.33-2.117-0.988-2.752c-0.542-0.517-1.471-0.976-2.789-1.376c-0.705-0.188-2.377-0.563-5.012-1.128
		c-3.035-0.636-5.083-1.223-6.142-1.764c-2.142-1.082-3.212-2.692-3.212-4.833c0-4.092,3.153-6.138,9.46-6.138
		c6.588,0,9.918,2.563,9.988,7.689h-1.765c-0.142-2.469-0.988-4.127-2.541-4.974c-1.271-0.705-3.165-1.058-5.683-1.058
		c-5.106,0-7.66,1.493-7.66,4.479c0,1.458,0.694,2.552,2.083,3.28c0.965,0.494,2.6,0.953,4.906,1.376
		c4.282,0.753,7.142,1.564,8.577,2.434c1.717,1.035,2.576,2.658,2.576,4.868c0,2.211-1.142,3.88-3.424,5.009
		C356.297,440.354,354.167,440.789,351.673,440.789z"/>
	<path d="M386.827,440.789c-3.083,0-5.554-0.553-7.412-1.658c-2.329-1.341-3.494-3.444-3.494-6.314v-0.847h1.8v0.706
		c0,4.304,3.047,6.455,9.142,6.455c2.095,0,3.848-0.317,5.26-0.952c1.812-0.823,2.718-2.093,2.718-3.81
		c0-1.199-0.33-2.117-0.988-2.752c-0.542-0.517-1.471-0.976-2.789-1.376c-0.705-0.188-2.377-0.563-5.012-1.128
		c-3.035-0.636-5.083-1.223-6.142-1.764c-2.142-1.082-3.212-2.692-3.212-4.833c0-4.092,3.153-6.138,9.46-6.138
		c6.588,0,9.918,2.563,9.988,7.689h-1.765c-0.142-2.469-0.988-4.127-2.541-4.974c-1.271-0.705-3.165-1.058-5.683-1.058
		c-5.106,0-7.66,1.493-7.66,4.479c0,1.458,0.694,2.552,2.083,3.28c0.965,0.494,2.6,0.953,4.906,1.376
		c4.282,0.753,7.142,1.564,8.577,2.434c1.717,1.035,2.576,2.658,2.576,4.868c0,2.211-1.142,3.88-3.424,5.009
		C391.451,440.354,389.321,440.789,386.827,440.789z"/>
	<path d="M408.357,418.284v22.258h-1.801v-22.258h-9.142v-1.658h20.084v1.658H408.357z"/>
	<path d="M439.753,437.508c-2.271,2.188-5.371,3.281-9.301,3.281c-3.953,0-7.054-1.082-9.3-3.246
		c-2.248-2.163-3.371-5.149-3.371-8.959c0-3.763,1.129-6.679,3.389-8.748c2.259-2.069,5.353-3.104,9.282-3.104
		s7.029,1.035,9.301,3.104c2.271,2.069,3.406,4.985,3.406,8.748S442.023,435.321,439.753,437.508z M438.482,421.053
		c-1.918-1.775-4.595-2.663-8.03-2.663c-3.412,0-6.077,0.888-7.994,2.663c-1.918,1.775-2.877,4.286-2.877,7.531
		s0.965,5.814,2.895,7.707c1.929,1.894,4.588,2.84,7.977,2.84c3.436,0,6.112-0.935,8.03-2.805c1.917-1.869,2.876-4.45,2.876-7.742
		C441.358,425.339,440.399,422.828,438.482,421.053z"/>
	<path d="M461.159,428.866c2.471,0.964,3.706,2.834,3.706,5.608v6.067h-1.8v-5.997c0-3.127-2.188-4.691-6.564-4.691h-9.425v10.688
		h-1.8v-23.916h11.542c5.6,0,8.4,2.093,8.4,6.278C465.219,425.821,463.865,427.808,461.159,428.866z M456.889,418.284h-9.813v9.841
		h9.248c2.023,0,3.646-0.376,4.871-1.129c1.482-0.893,2.224-2.222,2.224-3.985C463.419,419.859,461.242,418.284,456.889,418.284z"/>
	<path d="M467.937,440.542v-23.916h18.213v1.658h-16.448v8.994h14.577v1.623h-14.577v9.982h16.625v1.658H467.937z"/>
</g>
<polygon points="377.434,300.682 377.434,284.045 361.649,284.045 361.649,298.068 304.399,288.589 125.266,318.724 
	125.266,326.257 304.399,296.123 486.401,326.257 486.401,318.724 "/>
</svg>
